<svg xmlns="http://www.w3.org/2000/svg" width="18pt" height="18pt" viewBox="0 0 336 384"><path fill="#000" fill-rule="evenodd" d="M168.074 105.75c-47.699 0-86.176 38.477-86.176 86.176 0 47.699 38.477 86.176 86.176 86.176 47.7 0 86.176-38.477 86.176-86.176 0-47.7-38.477-86.176-86.176-86.176zm0 142.2c-30.824 0-56.023-25.126-56.023-56.024 0-30.903 25.125-56.028 56.023-56.028 30.903 0 56.028 25.125 56.028 56.028 0 30.898-25.204 56.023-56.028 56.023zm109.801-145.723c0 11.171-9 20.097-20.102 20.097-11.171 0-20.097-9-20.097-20.097 0-11.102 9-20.102 20.097-20.102 11.102 0 20.102 9 20.102 20.102zm57.074 20.398c-1.273-26.926-7.426-50.773-27.148-70.426-19.653-19.648-43.5-25.8-70.426-27.148-27.75-1.574-110.926-1.574-138.676 0C71.852 26.324 48 32.477 28.273 52.125 8.551 71.773 2.477 95.625 1.125 122.551c-1.574 27.75-1.574 110.926 0 138.676C2.398 288.148 8.551 312 28.273 331.648 48 351.301 71.773 357.45 98.7 358.801c27.75 1.574 110.926 1.574 138.676 0 26.926-1.278 50.773-7.426 70.426-27.153 19.648-19.648 25.8-43.5 27.148-70.421 1.574-27.75 1.574-110.852 0-138.602zM299.102 291c-5.852 14.7-17.176 26.023-31.954 31.95-22.125 8.777-74.625 6.75-99.074 6.75-24.449 0-77.023 1.948-99.074-6.75-14.7-5.848-26.023-17.177-31.95-31.95-8.777-22.125-6.75-74.625-6.75-99.074 0-24.45-1.948-77.028 6.75-99.074C42.899 78.148 54.228 66.824 69 60.898c22.125-8.773 74.625-6.75 99.074-6.75 24.45 0 77.028-1.949 99.074 6.75 14.704 5.852 26.028 17.176 31.954 31.954 8.773 22.125 6.75 74.625 6.75 99.074 0 24.449 2.023 77.023-6.75 99.074zm0 0"/></svg>