<svg xmlns="http://www.w3.org/2000/svg" viewBox="0 0 1000 1000"><path d="M463.88 10.32c-69.97 7.02-122.81 21.67-181.84 50.36-127.56 62.54-222.5 179.78-257.8 318.68C13.1 423.54 10 449.96 10 500.32c0 50.15 3.1 76.16 14.24 120.74C68 794.65 204.84 931.7 379.05 976.07c43.76 10.94 70.59 14.24 120.95 14.24 50.15 0 75.95-3.1 120.75-14.24 69.97-17.75 137.67-52.22 194.84-99.69 77.61-64.4 135.19-156.45 160.17-255.32C986.9 576.27 990 550.47 990 500.32c0-50.16-3.1-76.58-14.24-120.75-34.88-138.29-130.45-256.35-257.8-318.89-49.33-23.94-96.39-38.8-147.78-46.44-22.5-3.3-88.34-5.78-106.3-3.92zm43.34 250.37l32.4 31.79-72.24 72.45c-75.75 75.96-76.99 77.4-73.69 91.85.83 4.33 14.45 18.78 49.12 51.81 53.05 50.78 57.38 56.55 53.05 71-1.86 6.19-8.67 14.65-27.45 33.64-13.62 14.04-25.59 25.18-26.21 24.97-5.36-2.28-169.04-158.31-172.34-164.3-3.1-5.57-4.13-11.56-4.13-22.09 0-21.88 4.13-27.45 64.81-85.66 28.9-27.86 72.45-70.18 97.01-94.33 24.56-24.15 45.2-43.55 46.03-43.34.62.21 15.89 14.66 33.64 32.21zm134.37 181.42c93.5 87.51 94.74 89.16 93.09 111.87-.41 7.43-2.27 16.31-4.13 19.82-1.65 3.51-15.69 18.37-30.75 33.02-15.06 14.86-60.27 58.82-100.31 97.63l-72.86 71-32.4-31.79c-17.75-17.34-32.82-31.99-33.23-32.41-.62-.21 31.58-33.23 71.42-73.27 75.94-76.16 77.18-77.6 73.88-92.05-.83-4.34-14.45-18.78-49.13-51.81-53.04-50.78-57.38-56.55-53.04-71 1.86-6.19 8.67-14.66 27.45-33.64 13.62-14.04 25.59-25.18 26.42-24.97.62.41 38.39 35.29 83.59 77.6z"/></svg>
